<?xml version="1.0" encoding="utf-8"?>
<!-- Generator: Adobe Illustrator 16.0.0, SVG Export Plug-In . SVG Version: 6.00 Build 0)  -->
<!DOCTYPE svg PUBLIC "-//W3C//DTD SVG 1.1//EN" "http://www.w3.org/Graphics/SVG/1.1/DTD/svg11.dtd">
<svg version="1.1" id="Layer_1" xmlns="http://www.w3.org/2000/svg" xmlns:xlink="http://www.w3.org/1999/xlink" x="0px" y="0px"
	 width="841.89px" height="595.28px" viewBox="0 0 841.89 595.28" enable-background="new 0 0 841.89 595.28" xml:space="preserve">
<g>
	<g>
		<path fill-rule="evenodd" clip-rule="evenodd" fill="#E54E2C" d="M120.165,389.65l-35.659-50.803H73.25v86.823h13.552v-62.463
			l33.363,48.306l33.36-48.306v62.463h13.552v-86.823h-11.26L120.165,389.65z M216.08,338.848l-44.2,86.823h14.385l11.26-22.069
			h45.872l11.26,22.069h14.591l-44.616-86.823H216.08z M203.364,392.149l17.096-33.312l16.89,33.312H203.364z M334.88,399.854
			l-55.253-61.007h-7.089v86.823h13.345v-60.798l55.253,60.798h7.089v-86.823H334.88V399.854z M397.105,338.848h-38.573v86.823
			h38.573c30.232,0,47.328-18.115,47.328-43.099C444.433,357.588,426.504,338.848,397.105,338.848z M397.312,413.179h-25.225
			v-61.836h25.225c20.434,0,33.153,13.324,33.153,31.02C430.465,400.271,418.999,413.179,397.312,413.179z M689.387,338.848H452.269
			v86.823h85.275v-12.492H465.82v-27.485h44.62v-12.492h-44.62v-21.652h95.079v74.122h13.552v-74.122h64.012v74.122h13.552v-74.122
			h37.372V338.848z M719.584,338.848h-8.548l-44.203,86.823h14.388l11.256-22.069h45.873l11.26,22.069h14.595L719.584,338.848z
			 M698.316,392.149l17.097-33.312l16.89,33.312H698.316z M315.216,169.094l65.219,53.004L487.111,135.6l-0.182-54.658
			l-106.123,85.392L270.996,80.758v192.134h44.221V169.094z"/>
	</g>
</g>
<g>
	<g>
		<path fill-rule="evenodd" clip-rule="evenodd" fill="#9B878A" d="M525.065,272.892h44.217V80.758L396.836,217.127l-0.922,55.393
			l129.151-101.584V272.892z M281.526,464.719l-14.701,29.974h4.005l3.958-8.063h16.594l4.067,8.063h4.064l-14.87-29.974H281.526z
			 M276.516,483.126l6.569-13.29l6.625,13.29H276.516z M319.452,471.502h-10.303v23.19h10.303c8.077,0,12.64-4.839,12.64-11.511
			C332.092,476.509,327.302,471.502,319.452,471.502z M319.508,491.357h-6.738V474.84h6.738c5.458,0,8.854,3.558,8.854,8.286
			C328.362,487.909,325.299,491.357,319.508,491.357z M351.529,488.853l-8.741-17.351h-3.844l11.642,23.19h1.893l11.638-23.19
			h-4.012L351.529,488.853z M386.392,470.893c-8.521,0-14.202,5.337-14.202,12.233c0,6.842,5.682,12.289,14.202,12.289
			c8.58,0,14.257-5.393,14.257-12.289C400.649,476.175,394.972,470.893,386.392,470.893z M386.392,492.025
			c-6.349,0-10.472-3.896-10.472-8.899c0-5.003,4.123-8.898,10.472-8.898c6.404,0,10.527,3.95,10.527,8.898
			C396.919,488.075,392.852,492.025,386.392,492.025z M427.884,485.684h5.901v2.505c-1.279,2.113-4.9,3.837-9.078,3.837
			c-6.624,0-10.857-3.95-10.857-8.899c0-4.948,4.288-8.898,10.857-8.898c4.068,0,7.574,1.559,9.525,4.115l2.785-2.003
			c-2.729-3.558-6.907-5.447-12.311-5.447c-8.744,0-14.587,5.393-14.587,12.289c0,6.896,5.788,12.233,14.587,12.233
			c5.737,0,10.084-2.113,12.754-6.061v-7.006h-9.577V485.684z M457.011,471.502l-11.808,23.19h3.845l3.007-5.895h12.252l3.008,5.895
			h3.898l-11.92-23.19H457.011z M453.614,485.738l4.566-8.896l4.509,8.896H453.614z M490.591,471.502h-10.304v23.19h10.304
			c8.077,0,12.644-4.839,12.644-11.511C503.234,476.509,498.443,471.502,490.591,471.502z M490.646,491.357h-6.737V474.84h6.737
			c5.458,0,8.858,3.558,8.858,8.286C499.504,487.909,496.441,491.357,490.646,491.357z M526.734,470.893
			c-8.521,0-14.198,5.337-14.198,12.233c0,6.842,5.678,12.289,14.198,12.289c8.579,0,14.258-5.393,14.258-12.289
			C540.992,476.175,535.313,470.893,526.734,470.893z M526.734,492.025c-6.349,0-10.468-3.896-10.468-8.899
			c0-5.003,4.119-8.898,10.468-8.898c6.404,0,10.527,3.95,10.527,8.898C537.262,488.075,533.197,492.025,526.734,492.025z
			 M562.379,480.346c-4.845,0-7.24-0.612-7.24-2.836c0-1.893,2.172-3.338,5.847-3.338c2.953,0,6.46,1.057,9.468,3.06l1.837-3.004
			c-3.507-2.224-7.237-3.335-11.249-3.335c-6.012,0-9.577,2.78-9.577,6.617c0,4.949,3.954,5.95,11.081,6.061
			c4.845,0.113,7.24,1.28,7.24,4.006c0,2.501-2.561,4.504-6.906,4.504c-3.283,0-7.296-1.17-10.634-3.393l-1.783,3.06
			c3.786,2.392,8.407,3.668,12.809,3.668c6.46,0,10.304-3.503,10.304-7.619C573.574,482.902,569.84,480.346,562.379,480.346z
			 M589.019,480.181v5.307l62.235-2.653L589.019,480.181z M251.264,485.487v-5.307l-62.239,2.653L251.264,485.487z"/>
	</g>
</g>
</svg>
