<?xml version="1.0" standalone="no"?>
<!DOCTYPE svg PUBLIC "-//W3C//DTD SVG 20010904//EN"
 "http://www.w3.org/TR/2001/REC-SVG-20010904/DTD/svg10.dtd">
<svg version="1.0" xmlns="http://www.w3.org/2000/svg"
 width="512.000000pt" height="512.000000pt" viewBox="0 0 512.000000 512.000000"
 preserveAspectRatio="xMidYMid meet">
<metadata>
Created by potrace 1.11, written by Peter Selinger 2001-2013
</metadata>
<g transform="translate(0.000000,512.000000) scale(0.100000,-0.100000)"
fill="#000000" stroke="none">
<path d="M3259 3833 c-2 -5 -26 -27 -54 -49 -27 -21 -59 -47 -70 -56 -22 -19
-489 -395 -551 -443 -21 -16 -131 -105 -245 -197 -115 -93 -210 -168 -212
-168 -2 0 -20 12 -39 28 -19 15 -50 38 -68 52 -26 20 -220 171 -405 316 -16
13 -66 51 -111 86 -44 35 -96 75 -115 90 -165 131 -435 338 -440 338 -4 0 -6
-463 -6 -1030 l0 -1030 239 0 238 0 0 555 c0 305 2 555 5 555 4 0 363 -290
470 -379 105 -88 223 -181 228 -181 3 0 43 31 89 68 46 37 178 144 293 237
174 140 316 255 440 356 155 128 210 172 262 214 58 46 63 53 63 90 2 130 -1
550 -4 553 -2 2 -6 -1 -7 -5z"/>
<path d="M4120 3809 c-19 -17 -51 -43 -70 -58 -32 -25 -505 -400 -580 -461
-19 -16 -186 -149 -370 -295 -184 -147 -442 -353 -572 -457 l-238 -189 0 -285
c0 -156 3 -284 6 -284 4 0 52 36 108 81 55 44 108 86 116 92 8 7 78 61 155
122 77 60 142 112 145 115 3 3 34 28 70 55 36 27 101 78 145 113 44 35 87 69
95 75 8 7 35 28 60 47 25 19 50 39 57 45 6 5 24 20 40 32 15 11 109 85 207
162 99 77 182 139 184 136 3 -3 5 -248 5 -545 l0 -540 238 0 238 0 0 1035 c0
569 -1 1035 -2 1035 -1 0 -18 -14 -37 -31z"/>
</g>
</svg>
